<?xml version="1.0" encoding="UTF-8"?>
<svg xmlns="http://www.w3.org/2000/svg" xmlns:xlink="http://www.w3.org/1999/xlink" fill-opacity="1" color-rendering="auto" color-interpolation="auto" stroke="black" text-rendering="auto" stroke-linecap="square" width="1096" stroke-miterlimit="10" stroke-opacity="1" shape-rendering="auto" fill="black" stroke-dasharray="none" font-weight="normal" stroke-width="1" height="848" font-family="'Dialog'" font-style="normal" stroke-linejoin="miter" font-size="12" stroke-dashoffset="0" image-rendering="auto">
  <!--Generated by ySVG-->
  <defs id="genericDefs"/>
  <g>
    <defs id="defs1">
      <clipPath clipPathUnits="userSpaceOnUse" id="clipPath1">
        <path d="M0 0 L1096 0 L1096 848 L0 848 L0 0 Z"/>
      </clipPath>
      <clipPath clipPathUnits="userSpaceOnUse" id="clipPath2">
        <path d="M-188 40 L908 40 L908 888 L-188 888 L-188 40 Z"/>
      </clipPath>
    </defs>
    <g fill="white" transform="translate(188,-40)" stroke="white">
      <rect x="-188" width="1096" height="848" y="40" clip-path="url(#clipPath2)" stroke="none"/>
    </g>
    <g font-family="sans-serif" transform="matrix(1,0,0,1,188,-40)">
      <text x="371.6475" xml:space="preserve" y="87.5127" clip-path="url(#clipPath2)" stroke="none">24 Possibilities:</text>
      <text x="377.9727" xml:space="preserve" y="102.2139" clip-path="url(#clipPath2)" stroke="none">1L, 2L, ...12L</text>
      <text x="374.9844" xml:space="preserve" y="116.915" clip-path="url(#clipPath2)" stroke="none">1H, 2H, ...12H</text>
      <rect stroke-linecap="butt" x="301" y="55" clip-path="url(#clipPath2)" fill="none" width="224" height="85" stroke-miterlimit="1.45"/>
      <rect x="329" y="165" clip-path="url(#clipPath2)" fill="rgb(255,204,0)" width="80" height="26" stroke="none"/>
      <text x="343.7046" xml:space="preserve" font-size="13" y="183.1067" clip-path="url(#clipPath2)" stroke="none">1, 2, 3, 4</text>
      <rect stroke-linecap="butt" x="329" y="165" clip-path="url(#clipPath2)" fill="none" width="80" height="26" stroke-miterlimit="1.45"/>
      <rect x="434" y="165" clip-path="url(#clipPath2)" fill="rgb(255,204,0)" width="80" height="26" stroke="none"/>
      <text x="448.7046" xml:space="preserve" font-size="13" y="183.1067" clip-path="url(#clipPath2)" stroke="none">5, 6, 7, 8</text>
      <rect stroke-linecap="butt" x="434" y="165" clip-path="url(#clipPath2)" fill="none" width="80" height="26" stroke-miterlimit="1.45"/>
      <path fill="rgb(255,204,0)" d="M424 197 L439 227 L409 227 Z" clip-path="url(#clipPath2)" fill-rule="evenodd" stroke="none"/>
      <path fill="none" d="M424 197 L439 227 L409 227 Z" stroke-miterlimit="1.45" clip-path="url(#clipPath2)" fill-rule="evenodd" stroke-linecap="butt"/>
      <text x="49.7344" xml:space="preserve" y="415.7127" clip-path="url(#clipPath2)" stroke="none">8 Possibilities:</text>
      <text x="51.0527" xml:space="preserve" y="430.4139" clip-path="url(#clipPath2)" stroke="none">1L, 2L, 3L, 4L</text>
      <text x="47.0684" xml:space="preserve" y="445.1151" clip-path="url(#clipPath2)" stroke="none">5H, 6H, 7H, 8H</text>
      <rect stroke-linecap="butt" x="-24.25" y="383.2" clip-path="url(#clipPath2)" fill="none" width="224" height="85" stroke-miterlimit="1.45"/>
      <text x="638.6344" xml:space="preserve" y="410.7127" clip-path="url(#clipPath2)" stroke="none">8 Possibilities:</text>
      <text x="629.942" xml:space="preserve" y="425.4139" clip-path="url(#clipPath2)" stroke="none">9L, 10L, 11L, 12L</text>
      <text x="625.9576" xml:space="preserve" y="440.1151" clip-path="url(#clipPath2)" stroke="none">9H, 10H, 11H, 12H</text>
      <rect stroke-linecap="butt" x="564.65" y="378.2" clip-path="url(#clipPath2)" fill="none" width="224" height="85" stroke-miterlimit="1.45"/>
      <text x="382.1553" xml:space="preserve" y="360.0639" clip-path="url(#clipPath2)" stroke="none">Mirror of &lt; case</text>
      <rect stroke-linecap="butt" x="365.2" y="312.85" clip-path="url(#clipPath2)" fill="none" width="117.6" height="85" stroke-miterlimit="1.45"/>
      <rect x="-7.25" y="493.2" clip-path="url(#clipPath2)" fill="rgb(255,204,0)" width="80" height="26" stroke="none"/>
      <text x="14.6814" xml:space="preserve" font-size="13" y="511.3067" clip-path="url(#clipPath2)" stroke="none">1, 2, 5</text>
      <rect stroke-linecap="butt" x="-7.25" y="493.2" clip-path="url(#clipPath2)" fill="none" width="80" height="26" stroke-miterlimit="1.45"/>
      <rect x="97.75" y="493.2" clip-path="url(#clipPath2)" fill="rgb(255,204,0)" width="80" height="26" stroke="none"/>
      <text x="116.0664" xml:space="preserve" font-size="13" y="511.3067" clip-path="url(#clipPath2)" stroke="none">3, 6, 12</text>
      <rect stroke-linecap="butt" x="97.75" y="493.2" clip-path="url(#clipPath2)" fill="none" width="80" height="26" stroke-miterlimit="1.45"/>
      <path fill="rgb(255,204,0)" d="M87.7501 525.2005 L102.7501 555.2005 L72.7501 555.2005 Z" clip-path="url(#clipPath2)" fill-rule="evenodd" stroke="none"/>
      <path fill="none" d="M87.7501 525.2005 L102.7501 555.2005 L72.7501 555.2005 Z" stroke-miterlimit="1.45" clip-path="url(#clipPath2)" fill-rule="evenodd" stroke-linecap="butt"/>
      <text x="-126.2156" xml:space="preserve" y="644.7127" clip-path="url(#clipPath2)" stroke="none">3 Possibilities:</text>
      <text x="-115.8855" xml:space="preserve" y="659.4139" clip-path="url(#clipPath2)" stroke="none">1L, 2L, 6H</text>
      <text x="-118.0477" xml:space="preserve" y="674.1151" clip-path="url(#clipPath2)" stroke="none">(2+1 Case)</text>
      <rect stroke-linecap="butt" x="-142.7" y="612.2" clip-path="url(#clipPath2)" fill="none" width="109" height="85" stroke-miterlimit="1.45"/>
      <text x="49.7344" xml:space="preserve" y="644.7127" clip-path="url(#clipPath2)" stroke="none">3 Possibilities:</text>
      <text x="59.0684" xml:space="preserve" y="659.4139" clip-path="url(#clipPath2)" stroke="none">4L, 7H, 8H</text>
      <text x="61.8984" xml:space="preserve" y="674.1151" clip-path="url(#clipPath2)" stroke="none">2+1 Case</text>
      <rect stroke-linecap="butt" x="33.25" y="612.2" clip-path="url(#clipPath2)" fill="none" width="109" height="85" stroke-miterlimit="1.45"/>
      <text x="229.7723" xml:space="preserve" y="659.4139" clip-path="url(#clipPath2)" stroke="none">3L, 5H</text>
      <rect stroke-linecap="butt" x="199.9" y="612.2" clip-path="url(#clipPath2)" fill="none" width="95.1" height="85" stroke-miterlimit="1.45"/>
      <rect x="-123.2" y="711.4" clip-path="url(#clipPath2)" fill="rgb(255,204,0)" width="30" height="26" stroke="none"/>
      <text x="-111.815" xml:space="preserve" font-size="13" y="729.5067" clip-path="url(#clipPath2)" stroke="none">1</text>
      <rect stroke-linecap="butt" x="-123.2" y="711.4" clip-path="url(#clipPath2)" fill="none" width="30" height="26" stroke-miterlimit="1.45"/>
      <rect x="-78.2" y="711.4" clip-path="url(#clipPath2)" fill="rgb(255,204,0)" width="25" height="26" stroke="none"/>
      <text x="-69.315" xml:space="preserve" font-size="13" y="729.5067" clip-path="url(#clipPath2)" stroke="none">2</text>
      <rect stroke-linecap="butt" x="-78.2" y="711.4" clip-path="url(#clipPath2)" fill="none" width="25" height="26" stroke-miterlimit="1.45"/>
      <path fill="rgb(255,204,0)" d="M-88.2 743.4 L-73.2 773.4 L-103.2 773.4 Z" clip-path="url(#clipPath2)" fill-rule="evenodd" stroke="none"/>
      <path fill="none" d="M-88.2 743.4 L-73.2 773.4 L-103.2 773.4 Z" stroke-miterlimit="1.45" clip-path="url(#clipPath2)" fill-rule="evenodd" stroke-linecap="butt"/>
      <text x="-91.1199" xml:space="preserve" y="843.0638" clip-path="url(#clipPath2)" stroke="none">6H</text>
      <rect stroke-linecap="butt" x="-103.2" y="819.6" clip-path="url(#clipPath2)" fill="none" width="39.5" height="37.5" stroke-miterlimit="1.45"/>
      <text x="-159.6238" xml:space="preserve" y="843.0638" clip-path="url(#clipPath2)" stroke="none">1L</text>
      <rect stroke-linecap="butt" x="-172.7" y="819.6" clip-path="url(#clipPath2)" fill="none" width="39.5" height="37.5" stroke-miterlimit="1.45"/>
      <text x="-11.1738" xml:space="preserve" y="843.0638" clip-path="url(#clipPath2)" stroke="none">2L</text>
      <rect stroke-linecap="butt" x="-24.25" y="819.6" clip-path="url(#clipPath2)" fill="none" width="39.5" height="37.5" stroke-miterlimit="1.45"/>
      <rect x="221.25" y="719.3" clip-path="url(#clipPath2)" fill="rgb(255,204,0)" width="30" height="26" stroke="none"/>
      <text x="232.635" xml:space="preserve" font-size="13" y="737.4067" clip-path="url(#clipPath2)" stroke="none">3</text>
      <rect stroke-linecap="butt" x="221.25" y="719.3" clip-path="url(#clipPath2)" fill="none" width="30" height="26" stroke-miterlimit="1.45"/>
      <rect x="266.25" y="719.3" clip-path="url(#clipPath2)" fill="rgb(255,204,0)" width="25" height="26" stroke="none"/>
      <text x="271.52" xml:space="preserve" font-size="13" y="737.4067" clip-path="url(#clipPath2)" stroke="none">12</text>
      <rect stroke-linecap="butt" x="266.25" y="719.3" clip-path="url(#clipPath2)" fill="none" width="25" height="26" stroke-miterlimit="1.45"/>
      <path fill="rgb(255,204,0)" d="M256.25 751.3 L271.25 781.3 L241.25 781.3 Z" clip-path="url(#clipPath2)" fill-rule="evenodd" stroke="none"/>
      <path fill="none" d="M256.25 751.3 L271.25 781.3 L241.25 781.3 Z" stroke-miterlimit="1.45" clip-path="url(#clipPath2)" fill-rule="evenodd" stroke-linecap="butt"/>
      <text x="253.3301" xml:space="preserve" y="850.9639" clip-path="url(#clipPath2)" stroke="none">5H</text>
      <rect stroke-linecap="butt" x="241.25" y="827.5" clip-path="url(#clipPath2)" fill="none" width="39.5" height="37.5" stroke-miterlimit="1.45"/>
      <text x="184.8262" xml:space="preserve" y="850.9639" clip-path="url(#clipPath2)" stroke="none">3L</text>
      <rect stroke-linecap="butt" x="171.75" y="827.5" clip-path="url(#clipPath2)" fill="none" width="39.5" height="37.5" stroke-miterlimit="1.45"/>
      <rect x="589.95" y="493.2" clip-path="url(#clipPath2)" fill="rgb(255,204,0)" width="80" height="26" stroke="none"/>
      <text x="615.4932" xml:space="preserve" font-size="13" y="511.3067" clip-path="url(#clipPath2)" stroke="none">9, 10</text>
      <rect stroke-linecap="butt" x="589.95" y="493.2" clip-path="url(#clipPath2)" fill="none" width="80" height="26" stroke-miterlimit="1.45"/>
      <rect x="694.95" y="493.2" clip-path="url(#clipPath2)" fill="rgb(255,204,0)" width="80" height="26" stroke="none"/>
      <text x="720.4932" xml:space="preserve" font-size="13" y="511.3067" clip-path="url(#clipPath2)" stroke="none">11, 1</text>
      <rect stroke-linecap="butt" x="694.95" y="493.2" clip-path="url(#clipPath2)" fill="none" width="80" height="26" stroke-miterlimit="1.45"/>
      <path fill="rgb(255,204,0)" d="M684.95 525.2 L699.95 555.2 L669.95 555.2 Z" clip-path="url(#clipPath2)" fill-rule="evenodd" stroke="none"/>
      <path fill="none" d="M684.95 525.2 L699.95 555.2 L669.95 555.2 Z" stroke-miterlimit="1.45" clip-path="url(#clipPath2)" fill-rule="evenodd" stroke-linecap="butt"/>
      <text x="470.9844" xml:space="preserve" y="644.7127" clip-path="url(#clipPath2)" stroke="none">3 Possibilities:</text>
      <text x="474.6406" xml:space="preserve" y="659.4139" clip-path="url(#clipPath2)" stroke="none">9L, 10L, 11H</text>
      <text x="479.1523" xml:space="preserve" y="674.1151" clip-path="url(#clipPath2)" stroke="none">(2+1 Case)</text>
      <rect stroke-linecap="butt" x="454.5" y="612.2" clip-path="url(#clipPath2)" fill="none" width="109" height="85" stroke-miterlimit="1.45"/>
      <text x="646.9344" xml:space="preserve" y="652.0633" clip-path="url(#clipPath2)" stroke="none">2 Possibilities:</text>
      <text x="660.5984" xml:space="preserve" y="666.7645" clip-path="url(#clipPath2)" stroke="none">12L, 12H</text>
      <rect stroke-linecap="butt" x="630.45" y="612.2" clip-path="url(#clipPath2)" fill="none" width="109" height="85" stroke-miterlimit="1.45"/>
      <text x="806.6344" xml:space="preserve" y="644.7127" clip-path="url(#clipPath2)" stroke="none">3 Possibilities:</text>
      <text x="809.2946" xml:space="preserve" y="659.4139" clip-path="url(#clipPath2)" stroke="none">9H, 10H, 11L</text>
      <text x="814.8024" xml:space="preserve" y="674.1151" clip-path="url(#clipPath2)" stroke="none">(2+1 Case)</text>
      <rect stroke-linecap="butt" x="797.1" y="612.2" clip-path="url(#clipPath2)" fill="none" width="95.1" height="85" stroke-miterlimit="1.45"/>
      <rect x="649.95" y="727.2" clip-path="url(#clipPath2)" fill="rgb(255,204,0)" width="30" height="26" stroke="none"/>
      <text x="661.335" xml:space="preserve" font-size="13" y="745.3067" clip-path="url(#clipPath2)" stroke="none">1</text>
      <rect stroke-linecap="butt" x="649.95" y="727.2" clip-path="url(#clipPath2)" fill="none" width="30" height="26" stroke-miterlimit="1.45"/>
      <rect x="694.95" y="727.2" clip-path="url(#clipPath2)" fill="rgb(255,204,0)" width="25" height="26" stroke="none"/>
      <text x="700.22" xml:space="preserve" font-size="13" y="745.3067" clip-path="url(#clipPath2)" stroke="none">12</text>
      <rect stroke-linecap="butt" x="694.95" y="727.2" clip-path="url(#clipPath2)" fill="none" width="25" height="26" stroke-miterlimit="1.45"/>
      <path fill="rgb(255,204,0)" d="M684.95 759.2 L699.95 789.2 L669.95 789.2 Z" clip-path="url(#clipPath2)" fill-rule="evenodd" stroke="none"/>
      <path fill="none" d="M684.95 759.2 L699.95 789.2 L669.95 789.2 Z" stroke-miterlimit="1.45" clip-path="url(#clipPath2)" fill-rule="evenodd" stroke-linecap="butt"/>
      <text x="679.6893" xml:space="preserve" y="858.8639" clip-path="url(#clipPath2)" stroke="none">12L</text>
      <rect stroke-linecap="butt" x="669.95" y="835.4" clip-path="url(#clipPath2)" fill="none" width="39.5" height="37.5" stroke-miterlimit="1.45"/>
      <text x="609.1932" xml:space="preserve" y="858.8639" clip-path="url(#clipPath2)" stroke="none">12H</text>
      <rect stroke-linecap="butt" x="600.45" y="835.4" clip-path="url(#clipPath2)" fill="none" width="39.5" height="37.5" stroke-miterlimit="1.45"/>
      <path fill="none" d="M413.0407 218.9651 L161.3742 378.909" stroke-miterlimit="1.45" clip-path="url(#clipPath2)" stroke-linecap="butt"/>
      <path d="M154.6224 383.2 L167.432 380.9833 L162.2182 378.3726 L162.0682 372.5436 Z" stroke-miterlimit="1.45" clip-path="url(#clipPath2)" stroke-linecap="butt" stroke="none"/>
      <text stroke-linecap="butt" x="280.9237" y="320.2661" clip-path="url(#clipPath2)" stroke="none" xml:space="preserve" stroke-miterlimit="1.45">&lt;</text>
      <path fill="none" d="M436.799 222.5726 L619.0321 373.1051" stroke-miterlimit="1.45" clip-path="url(#clipPath2)" stroke-linecap="butt"/>
      <path d="M625.2 378.2 L619.1325 366.7028 L618.2612 372.4682 L612.7639 374.4125 Z" stroke-miterlimit="1.45" clip-path="url(#clipPath2)" stroke-linecap="butt" stroke="none"/>
      <text stroke-linecap="butt" x="527.6353" y="321.1126" clip-path="url(#clipPath2)" stroke="none" xml:space="preserve" stroke-miterlimit="1.45">=</text>
      <path fill="none" d="M424 227.0139 L424 304.85" stroke-miterlimit="1.45" clip-path="url(#clipPath2)" stroke-linecap="butt"/>
      <path d="M424 312.85 L429 300.85 L424 303.85 L419 300.85 Z" stroke-miterlimit="1.45" clip-path="url(#clipPath2)" stroke-linecap="butt" stroke="none"/>
      <text stroke-linecap="butt" x="428" y="274.6389" clip-path="url(#clipPath2)" stroke="none" xml:space="preserve" stroke-miterlimit="1.45">&gt;</text>
      <path fill="none" d="M76.6457 547.4261 L-26.9948 614.8705" stroke-miterlimit="1.45" clip-path="url(#clipPath2)" stroke-linecap="butt"/>
      <path d="M-33.7 619.2339 L-20.915 616.8795 L-26.1566 614.3251 L-26.3693 608.498 Z" stroke-miterlimit="1.45" clip-path="url(#clipPath2)" stroke-linecap="butt" stroke="none"/>
      <text stroke-linecap="butt" x="16.0211" y="604.2438" clip-path="url(#clipPath2)" stroke="none" xml:space="preserve" stroke-miterlimit="1.45">&lt;</text>
      <path fill="none" d="M87.75 555.2114 L87.75 604.2" stroke-miterlimit="1.45" clip-path="url(#clipPath2)" stroke-linecap="butt"/>
      <path d="M87.75 612.2 L92.75 600.2 L87.75 603.2 L82.75 600.2 Z" stroke-miterlimit="1.45" clip-path="url(#clipPath2)" stroke-linecap="butt" stroke="none"/>
      <text stroke-linecap="butt" x="91.75" y="588.4139" clip-path="url(#clipPath2)" stroke="none" xml:space="preserve" stroke-miterlimit="1.45">=</text>
      <path fill="none" d="M99.4078 548.5583 L193.3984 615.9467" stroke-miterlimit="1.45" clip-path="url(#clipPath2)" stroke-linecap="butt"/>
      <path d="M199.9 620.6081 L193.061 609.5524 L192.5857 615.364 L187.2342 617.6794 Z" stroke-miterlimit="1.45" clip-path="url(#clipPath2)" stroke-linecap="butt" stroke="none"/>
      <text stroke-linecap="butt" x="147.8211" y="605.7919" clip-path="url(#clipPath2)" stroke="none" xml:space="preserve" stroke-miterlimit="1.45">&gt;</text>
      <path fill="none" d="M-87.3071 773.4297 L-85.0384 811.6141" stroke-miterlimit="1.45" clip-path="url(#clipPath2)" stroke-linecap="butt"/>
      <path d="M-84.564 819.6 L-80.2845 807.3246 L-85.0977 810.6158 L-90.2669 807.9177 Z" stroke-miterlimit="1.45" clip-path="url(#clipPath2)" stroke-linecap="butt" stroke="none"/>
      <text stroke-linecap="butt" x="-81.3809" y="801.2139" clip-path="url(#clipPath2)" stroke="none" xml:space="preserve" stroke-miterlimit="1.45">=</text>
      <path fill="none" d="M-100.3564 773.4102 L-132.7298 813.3831" stroke-miterlimit="1.45" clip-path="url(#clipPath2)" stroke-linecap="butt"/>
      <path d="M-137.7647 819.6 L-126.3268 813.4215 L-132.1004 812.606 L-134.0979 807.1279 Z" stroke-miterlimit="1.45" clip-path="url(#clipPath2)" stroke-linecap="butt" stroke="none"/>
      <text stroke-linecap="butt" x="-122.5604" y="819.3604" clip-path="url(#clipPath2)" stroke="none" xml:space="preserve" stroke-miterlimit="1.45">&lt;</text>
      <path fill="none" d="M-73.8345 772.1219 L-29.9144 814.0742" stroke-miterlimit="1.45" clip-path="url(#clipPath2)" stroke-linecap="butt"/>
      <path d="M-24.1295 819.6 L-29.3533 807.6957 L-30.6375 813.3835 L-36.2605 814.9269 Z" stroke-miterlimit="1.45" clip-path="url(#clipPath2)" stroke-linecap="butt" stroke="none"/>
      <text stroke-linecap="butt" x="-52.2289" y="817.4282" clip-path="url(#clipPath2)" stroke="none" xml:space="preserve" stroke-miterlimit="1.45">&gt;</text>
      <path fill="none" d="M257.1429 781.3297 L259.4116 819.5141" stroke-miterlimit="1.45" clip-path="url(#clipPath2)" stroke-linecap="butt"/>
      <path d="M259.886 827.5 L264.1655 815.2246 L259.3523 818.5159 L254.1831 815.8177 Z" stroke-miterlimit="1.45" clip-path="url(#clipPath2)" stroke-linecap="butt" stroke="none"/>
      <text stroke-linecap="butt" x="263.0692" y="809.1139" clip-path="url(#clipPath2)" stroke="none" xml:space="preserve" stroke-miterlimit="1.45">=</text>
      <path fill="none" d="M244.0936 781.3101 L211.7202 821.2831" stroke-miterlimit="1.45" clip-path="url(#clipPath2)" stroke-linecap="butt"/>
      <path d="M206.6853 827.5 L218.1232 821.3215 L212.3496 820.506 L210.3521 815.0278 Z" stroke-miterlimit="1.45" clip-path="url(#clipPath2)" stroke-linecap="butt" stroke="none"/>
      <text stroke-linecap="butt" x="221.8896" y="827.2604" clip-path="url(#clipPath2)" stroke="none" xml:space="preserve" stroke-miterlimit="1.45">&lt;</text>
      <path fill="none" d="M673.8457 547.4261 L570.2053 614.8705" stroke-miterlimit="1.45" clip-path="url(#clipPath2)" stroke-linecap="butt"/>
      <path d="M563.5 619.2339 L576.285 616.8795 L571.0434 614.3251 L570.8307 608.498 Z" stroke-miterlimit="1.45" clip-path="url(#clipPath2)" stroke-linecap="butt" stroke="none"/>
      <text stroke-linecap="butt" x="613.2211" y="604.2438" clip-path="url(#clipPath2)" stroke="none" xml:space="preserve" stroke-miterlimit="1.45">&lt;</text>
      <path fill="none" d="M684.95 555.2114 L684.95 604.2" stroke-miterlimit="1.45" clip-path="url(#clipPath2)" stroke-linecap="butt"/>
      <path d="M684.95 612.2 L689.95 600.2 L684.95 603.2 L679.95 600.2 Z" stroke-miterlimit="1.45" clip-path="url(#clipPath2)" stroke-linecap="butt" stroke="none"/>
      <text stroke-linecap="butt" x="688.95" y="588.4139" clip-path="url(#clipPath2)" stroke="none" xml:space="preserve" stroke-miterlimit="1.45">=</text>
      <path fill="none" d="M696.6078 548.5583 L790.5984 615.9467" stroke-miterlimit="1.45" clip-path="url(#clipPath2)" stroke-linecap="butt"/>
      <path d="M797.1 620.6081 L790.261 609.5524 L789.7856 615.364 L784.4341 617.6794 Z" stroke-miterlimit="1.45" clip-path="url(#clipPath2)" stroke-linecap="butt" stroke="none"/>
      <text stroke-linecap="butt" x="745.0211" y="605.7919" clip-path="url(#clipPath2)" stroke="none" xml:space="preserve" stroke-miterlimit="1.45">&gt;</text>
      <path fill="none" d="M685.843 789.2297 L688.1116 827.4141" stroke-miterlimit="1.45" clip-path="url(#clipPath2)" stroke-linecap="butt"/>
      <path d="M688.5861 835.4 L692.8655 823.1246 L688.0523 826.4158 L682.8832 823.7177 Z" stroke-miterlimit="1.45" clip-path="url(#clipPath2)" stroke-linecap="butt" stroke="none"/>
      <text stroke-linecap="butt" x="691.7692" y="817.0139" clip-path="url(#clipPath2)" stroke="none" xml:space="preserve" stroke-miterlimit="1.45">&gt;</text>
      <path fill="none" d="M672.7936 789.2101 L640.4202 829.1831" stroke-miterlimit="1.45" clip-path="url(#clipPath2)" stroke-linecap="butt"/>
      <path d="M635.3853 835.4 L646.8232 829.2215 L641.0496 828.406 L639.0522 822.9278 Z" stroke-miterlimit="1.45" clip-path="url(#clipPath2)" stroke-linecap="butt" stroke="none"/>
      <text stroke-linecap="butt" x="650.5896" y="835.1604" clip-path="url(#clipPath2)" stroke="none" xml:space="preserve" stroke-miterlimit="1.45">&lt;</text>
    </g>
  </g>
</svg>
